<svg xmlns="http://www.w3.org/2000/svg" width="53.5" height="56.57" viewBox="0 0 53.5 56.57">
  <g id="_1_4_Zip_Icon" data-name="1/4 Zip Icon" transform="translate(-0.25 -0.181)">
    <g id="Group_520" data-name="Group 520">
      <path id="Path_4948" data-name="Path 4948" d="M26,22.93c0-3.33.975-4.928,1.9-8.629L31.94,2.59a1.164,1.164,0,0,0,.08-.66,1.04,1.04,0,0,0-.16-.41.88.88,0,0,0-.26-.279A1.088,1.088,0,0,0,30.91,1H23.09a1.088,1.088,0,0,0-.69.241.989.989,0,0,0-.26.279,1.04,1.04,0,0,0-.16.41,1.164,1.164,0,0,0,.08.66l2.85,8.52L26.9,15.3" fill="none" stroke="#000" stroke-linecap="round" stroke-linejoin="round" stroke-width="1.5"/>
      <path id="Path_4949" data-name="Path 4949" d="M31.6,1.232,37.174,5.5,35,11l-4.473-.414" fill="none" stroke="#000" stroke-linecap="round" stroke-linejoin="round" stroke-width="1.5"/>
      <path id="Path_4950" data-name="Path 4950" d="M22.4,1.232,16.826,5.5,19,11l4.473-.414" fill="none" stroke="#000" stroke-linecap="round" stroke-linejoin="round" stroke-width="1.5"/>
      <path id="Path_4951" data-name="Path 4951" d="M43,39l3,13,7-1L46.689,12.638a3.372,3.372,0,0,0-1.575-2.311L37.174,6.5" fill="none" stroke="#000" stroke-linecap="round" stroke-linejoin="round" stroke-width="1.5"/>
      <path id="Path_4952" data-name="Path 4952" d="M11,39,8,52,1,51,7.311,12.638a3.372,3.372,0,0,1,1.575-2.311L16.826,6.5" fill="none" stroke="#000" stroke-linecap="round" stroke-linejoin="round" stroke-width="1.5"/>
      <path id="Path_4953" data-name="Path 4953" d="M11,20l1,32c4.8,0,5.3,4,15,4s10.195-4,15-4l1-32" fill="none" stroke="#000" stroke-linecap="round" stroke-linejoin="round" stroke-width="1.5"/>
    </g>
  </g>
</svg>
