<svg xmlns="http://www.w3.org/2000/svg" width="267.487" height="115" viewBox="0 0 267.487 115">
  <g id="Group_171" data-name="Group 171" transform="translate(-508.5 -4610)">
    <path id="Path_53" data-name="Path 53" d="M477.262,164.793a2.861,2.861,0,0,1-.8.976c-3.631,3.036-7.247,6.088-10.888,9.11a9.973,9.973,0,0,1-4.073,2.046,3.072,3.072,0,0,1-2.136-.239,4.955,4.955,0,0,1-2.909-3.954,4.134,4.134,0,0,1,.452-2.19,56.628,56.628,0,0,1,3.1-5.695c.5-.845,1.02-1.675,1.522-2.518a4.782,4.782,0,0,0,.369-.741.832.832,0,0,0-.413-1.2c-.172-.1-.354-.19-.535-.276-1.219-.583-1.781-.5-2.666.484a58.4,58.4,0,0,1-5.31,4.815c-3.6,3.144-7.241,6.25-10.867,9.369A11.688,11.688,0,0,1,438.8,176.7a4.445,4.445,0,0,1-5.98-3.633,5.763,5.763,0,0,1,.226-2.46c.377-1.2.783-2.387,1.176-3.58a.721.721,0,0,0,.07-.59c-.41.356-.8.686-1.183,1.028q-5.334,4.8-10.664,9.6a8.552,8.552,0,0,1-3.1,1.82,3.2,3.2,0,0,1-4.342-2.6,14.606,14.606,0,0,1-.092-3.461c.02-.427.047-.853.071-1.28-.291-.068-.435.147-.605.271-1.28.934-2.539,1.9-3.867,2.766a28.024,28.024,0,0,1-8.8,4.019,12.165,12.165,0,0,1-4.333.414,5.728,5.728,0,0,1-4.951-7.039,23.507,23.507,0,0,1,3.306-7.641,41.821,41.821,0,0,1,7.748-8.918c.7-.612,1.426-1.2,2.094-1.849a3.96,3.96,0,0,1,4.045-.978,6.573,6.573,0,0,1,1.665.692,4.083,4.083,0,0,1,1.947,5.169c-2.433,6.554-6.717,11.305-13.479,13.59-.3.1-.73.069-.868.376a1.891,1.891,0,0,0,0,1.262,1.651,1.651,0,0,0,1.537,1.243,7.9,7.9,0,0,0,2.692-.246,16.066,16.066,0,0,0,4.905-2.08,61.059,61.059,0,0,0,13.61-11.167,48.458,48.458,0,0,1,8.192-7.115,6.371,6.371,0,0,1,7.048-.508,3.882,3.882,0,0,1,2.086,2.456,2.756,2.756,0,0,1-.288,2.181.955.955,0,0,1-.807.6c-.412,0-.617-.3-.778-.622-.133-.27-.243-.552-.368-.826a3.663,3.663,0,0,0-.535-.907,1.338,1.338,0,0,0-1.943-.3,21.081,21.081,0,0,0-4.411,3.98c-3.231,4.214-6.362,8.5-9.516,12.772a2.193,2.193,0,0,0-.493,1.586,4.537,4.537,0,0,0,1.528-.922q6.278-5.145,12.552-10.3a55.774,55.774,0,0,1,5.142-3.7,4.052,4.052,0,0,1,5,1.086,1.3,1.3,0,0,1,.162,1.414c-.165.338-.332.677-.521,1-1.3,2.239-2.6,4.48-3.924,6.706a9.358,9.358,0,0,0-.95,2.609c-.095.385.1.567.493.448a5.246,5.246,0,0,0,1.533-.786A121.291,121.291,0,0,0,453.1,161.917a23.631,23.631,0,0,0,2.633-2.61c-.155-.283-.462-.275-.7-.361a15.266,15.266,0,0,1-1.957-.78,2.37,2.37,0,0,1-1.223-3.285,5.645,5.645,0,0,1,.9-1.561,13.4,13.4,0,0,1,7.5-4.749,5.791,5.791,0,0,1,2.841.068,1.986,1.986,0,0,1,1.613,2.422,6.185,6.185,0,0,1-.792,2.185,27.913,27.913,0,0,1-2.138,3.287c-.135.181-.263.369-.4.546-.179.223-.2.374.118.5.536.214,1.063.453,1.583.7a15.5,15.5,0,0,1,1.536.8,3.242,3.242,0,0,1,1.467,4.161c-.374,1.065-.835,2.1-1.268,3.144-.511,1.23-1.036,2.454-1.551,3.682a15.05,15.05,0,0,0-.729,2.532c-.08.351.115.543.442.424a5.329,5.329,0,0,0,1.6-.818q5.113-4.185,10.233-8.361c.233-.191.435-.418.662-.617.537-.471.936-.424,1.418.116.149.167.149.425.366.537Zm-67.278-9.941c-4.25,3.656-7.141,8.15-9.721,12.893a.638.638,0,0,0,.624-.039,7.729,7.729,0,0,0,2.062-1.229,18.831,18.831,0,0,0,2.935-2.92,21.32,21.32,0,0,0,3.716-6.164,5.077,5.077,0,0,0,.385-2.541m52.36-3.645a8.248,8.248,0,0,0-4.536,3.15,1.272,1.272,0,0,0-.129,1.4c.256.574.732.7,1.183.277a17.017,17.017,0,0,0,2.456-2.745,6.989,6.989,0,0,0,1.027-2.081" transform="translate(298.725 4530.626)" fill="#e6001b"/>
    <path id="Path_54" data-name="Path 54" d="M0,11.881c.279.157.574.037.858.038,3.575.011,7.15.007,10.724.007.1,0,.2.009.3,0,.344-.035.442.147.423.454-.012.2,0,.4,0,.6q0,24.454,0,48.907c0,1.113-.129.969.95.976,1.032.007,2.065,0,3.1,0,.866,0,.745-.053.747.784q.007,2.906,0,5.812c0,.816.1.728-.715.729q-7.44,0-14.878,0c-.5,0-1-.01-1.507-.016V62.927c1.333,0,2.667,0,4-.01.994-.009.858.161.858-.888q0-20.95,0-41.9c0-.176-.012-.353,0-.528.021-.263-.091-.349-.35-.347-1.5.016-3.009.02-4.513.027Z" transform="translate(508.5 4603.646)" fill="#fff"/>
    <path id="Path_55" data-name="Path 55" d="M176.087,115.966a17.2,17.2,0,0,1,1.825,1.577.717.717,0,0,1,.18.936,6.425,6.425,0,0,1-.69,1.165q-2.381,3.309-4.763,6.617a13.807,13.807,0,0,0-1.073,1.707c1.312,0,2.537,0,3.762,0a4.969,4.969,0,0,1,1.5.138,2.191,2.191,0,0,1,1.257.909,4.448,4.448,0,0,1,.524,3.967c-.208.628-.294.668-.926.542-2.121-.419-4.24-.847-6.362-1.265-.443-.087-.889-.169-1.338-.219a1.584,1.584,0,0,0-1.5.689,6.5,6.5,0,0,0-.482.764q-5.954,10.758-11.906,21.517a7.83,7.83,0,0,0-.661,1.517,1.318,1.318,0,0,0-.009,1,5.025,5.025,0,0,0,1.863-.883c3.331-2.726,6.662-5.453,9.928-8.257a5.63,5.63,0,0,0,1.167-1.469c1.772-3.017,3.78-5.881,5.7-8.8a3.291,3.291,0,0,1,.549-.619,1.58,1.58,0,0,1,2.07-.248,11.6,11.6,0,0,1,2.4,1.934.578.578,0,0,1,.131.686,3.456,3.456,0,0,1-.5.922,63.472,63.472,0,0,0-8.181,14.727,5.676,5.676,0,0,0-.363,1.382c-.027.191-.153.4.113.519.214.1.322-.072.44-.2.654-.7,1.33-1.374,1.918-2.132q4.81-6.207,9.624-12.409c.695-.9,1.448-1.743,2.208-2.582a1.7,1.7,0,0,1,2.646-.253,19.253,19.253,0,0,1,1.9,1.727.689.689,0,0,1,.111.989c-.567.979-1.137,1.958-1.655,2.963a30.236,30.236,0,0,0-2.972,8.588,11.563,11.563,0,0,0,.084,2.39,14.788,14.788,0,0,0,1.976-1.573,63.144,63.144,0,0,0,5.509-6.409,65.687,65.687,0,0,0,4.543-6.941,23.267,23.267,0,0,0,1.574-3.5,3.692,3.692,0,0,0,.009-2.652c-.225-.6-.441-1.212-.681-1.872a3.553,3.553,0,0,1,1.312-.089c2.654.454,4.937,3.031,3.66,6.174a18.024,18.024,0,0,1-.81,1.7,52.63,52.63,0,0,1-13.634,16.734,13.051,13.051,0,0,1-1.987,1.367,4.566,4.566,0,0,1-4.345.06,7.054,7.054,0,0,1-1.452-.943,4.236,4.236,0,0,1-1.533-3.9c.1-1.03.417-2.017.614-3.028a4.765,4.765,0,0,0,.113-1.1c-.3.11-.409.366-.556.563a79.789,79.789,0,0,1-6.744,7.835,14.4,14.4,0,0,1-1.893,1.729,3.757,3.757,0,0,1-4.987-.2,3.329,3.329,0,0,1-1.26-2.483,7.218,7.218,0,0,1,.214-2.319c.059-.24.1-.484.159-.774a1.433,1.433,0,0,0-.713.45c-1.819,1.473-3.6,2.988-5.557,4.288a23.726,23.726,0,0,1-2.259,1.365,4.229,4.229,0,0,1-5.806-1.985,3.635,3.635,0,0,1,.094-3.272c.865-1.815,1.73-3.631,2.619-5.434,1.323-2.683,2.666-5.355,4-8.031a4.972,4.972,0,0,0,.513-1.347,1.943,1.943,0,0,0-.692.629c-1.52,1.746-3,3.533-4.616,5.191-2.976,3.044-6.081,5.953-9.258,8.782a7.486,7.486,0,0,1-4.341,1.926,3.745,3.745,0,0,1-3.514-1.653,7.347,7.347,0,0,1-1.049-2.161,1.263,1.263,0,0,0-.221-.536,2.635,2.635,0,0,0-.684.491,63.745,63.745,0,0,1-7.459,5.123,3.936,3.936,0,0,1-3.248.538,4.629,4.629,0,0,1-2.929-6.275c1.077-2.36,2.454-4.558,3.753-6.8.366-.631.741-1.257,1.078-1.9a1.119,1.119,0,0,0-.443-1.676,2.27,2.27,0,0,0-3.064.422q-2.362,2.551-4.941,4.88c-3.761,3.394-7.785,6.461-11.838,9.49a15.726,15.726,0,0,1-2.675,1.545,4.379,4.379,0,0,1-6.208-3.183,5.19,5.19,0,0,1,.106-2.313c.305-1.222.776-2.388,1.166-3.582a.522.522,0,0,0,.049-.412c-1.048.29-2.117.526-3.194.711a18.6,18.6,0,0,0-2.714.634,6.758,6.758,0,0,0-3.231,2.133,21.773,21.773,0,0,1-4.14,3.841c-.771.566-1.539,1.137-2.339,1.66a5.3,5.3,0,0,1-5.184.41,2.96,2.96,0,0,1-.528-.288,1.534,1.534,0,0,1-.519-2.281,9.858,9.858,0,0,1,1.216-1.537,9.269,9.269,0,0,1,3.248-2.4,14.747,14.747,0,0,0,5.753-4.645,33.387,33.387,0,0,0,2.907-4.583c.794-1.457,1.577-2.92,2.368-4.379a2.256,2.256,0,0,0,.157-2.014,27.868,27.868,0,0,0-2.868,1.962,106.566,106.566,0,0,0-13.956,14.4,46.551,46.551,0,0,0-9.219,20.177,11.6,11.6,0,0,1-.82,3.123c-.067.133-.133.267-.184.369a5.123,5.123,0,0,1-3.093-1.916,5.433,5.433,0,0,1-.895-5.726c1.41-3.526,2.944-6.995,4.56-10.43,1.361-2.895,3.016-5.628,4.57-8.416a2.66,2.66,0,0,0,.475-1.533c-.175-.134-.317-.05-.449,0q-3.8,1.349-7.593,2.708c-.778.28-.952.544-.818,1.368a6.98,6.98,0,0,1-1.34,5.27,28.313,28.313,0,0,1-6.247,6.409,32.47,32.47,0,0,1-13.735,5.893A7.146,7.146,0,0,1,31,166.472a3.324,3.324,0,0,1,.383-3.683,6.654,6.654,0,0,1,.95-.969,34.36,34.36,0,0,1,8.233-5.272q4.745-2.218,9.5-4.423a4.261,4.261,0,0,0,1.551-1.017c-1.2-.243-2.34-.353-3.478-.478a84.381,84.381,0,0,1-9.425-1.218,12.32,12.32,0,0,1-3.248-1.18,5.834,5.834,0,0,1-3.143-6.642,14.278,14.278,0,0,1,1.364-3.98,32.266,32.266,0,0,1,6.094-8.485,58.54,58.54,0,0,1,12.54-9.987,29.79,29.79,0,0,1,8.641-3.463,9.757,9.757,0,0,1,8.136,1.8,5.765,5.765,0,0,1,2.4,6.227,30.9,30.9,0,0,1-8.675,16.176,9.1,9.1,0,0,1-2.506,1.79,5.658,5.658,0,0,1-6.632-1.317c-1.154-1.281-.681-1.761.433-2.175a17.028,17.028,0,0,0,6.808-4.981,30.937,30.937,0,0,0,6.243-10.757,7.633,7.633,0,0,0,.317-1.316,2.5,2.5,0,0,0-3.169-2.762,9.2,9.2,0,0,0-1.427.478,39.1,39.1,0,0,0-12.035,7.914c-3.5,3.264-6.726,6.8-9.9,10.376a11.139,11.139,0,0,0-2.219,4.414,2.327,2.327,0,0,0,1.5,3.044,18.973,18.973,0,0,0,3.108.9c2.62.617,5.284,1.008,7.926,1.512a18.413,18.413,0,0,1,5.693,1.905,1.682,1.682,0,0,0,1.382.1c2.362-.7,4.729-1.372,7.089-2.072,1.517-.449,3.017-.959,4.542-1.376a3,3,0,0,0,1.731-1.244c.75-1.072,1.5-2.142,2.248-3.217q1.312-1.891,2.613-3.791a4.065,4.065,0,0,1,.912-1,1.635,1.635,0,0,1,1.775-.2,7.488,7.488,0,0,1,2.382,1.819.958.958,0,0,1,.151,1.171,5.412,5.412,0,0,0-.541,1.254c.773-.649,1.467-1.222,2.151-1.806,1.571-1.341,3.206-2.6,4.89-3.793a3.354,3.354,0,0,1,3.044-.714,4.852,4.852,0,0,1,3.141,2.941,3.266,3.266,0,0,1-.047,2.219c-.54,1.756-1.241,3.451-1.933,5.15a19.821,19.821,0,0,1-1.508,3.2.455.455,0,0,0-.094.38,10.144,10.144,0,0,0,1.987-.315c1.409-.259,2.813-.547,4.224-.8a1.439,1.439,0,0,0,1.037-.758c1.795-2.883,3.619-5.747,5.437-8.615a3,3,0,0,1,.7-.781,1.812,1.812,0,0,1,1.982-.245,13.4,13.4,0,0,1,3,2.14.377.377,0,0,1,.113.466,6.673,6.673,0,0,1-.589,1.22c-2.362,4.066-4.715,8.138-7.094,12.194a8.368,8.368,0,0,0-.911,2.539c-.092.43.115.621.525.479a5.081,5.081,0,0,0,1.6-.818c5.029-4.109,10.083-8.189,14.955-12.487.162-.143.391-.241.441-.525l-1.825-.653a5.751,5.751,0,0,1-1.548-.766,2.171,2.171,0,0,1-.682-3,12.66,12.66,0,0,1,4.674-4.923,10.528,10.528,0,0,1,5.469-1.467c.176,0,.353.005.528.021a2.172,2.172,0,0,1,2.112,2.928,7.494,7.494,0,0,1-.854,2c-.6,1.076-1.311,2.087-1.993,3.113-.193.29-.378.586-.6.934.585.248,1.112.466,1.635.693a10.008,10.008,0,0,1,1.989,1.067,3.237,3.237,0,0,1,1.35,3.7,11.964,11.964,0,0,1-.722,1.98q-.841,1.978-1.709,3.943a22.231,22.231,0,0,0-1.418,4.378,5.927,5.927,0,0,0,2.051-.9q4.214-3.375,8.427-6.752a3.746,3.746,0,0,0,.836-1.059c.879-1.466,1.757-2.934,2.646-4.395a7.309,7.309,0,0,1,.7-.982,3.38,3.38,0,0,1,5.53.408,1.233,1.233,0,0,1,.169,1.144,6.94,6.94,0,0,1-.43.961q-1.962,3.613-3.941,7.216a5.184,5.184,0,0,0-.561,1.865c-.051.389.141.523.49.339a5.209,5.209,0,0,0,1.413-.991c5.668-6,11.416-11.933,16.6-18.376a2.587,2.587,0,0,0,.7-1.3c-.172-.2-.327-.028-.475.019-.862.272-1.726.539-2.578.84-.305.108-.381.018-.46-.261a2.247,2.247,0,0,1,1.254-2.823,16.812,16.812,0,0,1,2.952-.894q.583-.155,1.164-.311a5.2,5.2,0,0,0,3.077-2.034c.386-.556.85-1.058,1.279-1.584a3.839,3.839,0,0,0,.321-.313q2.784-3.4,5.563-6.807c.65-.8,1.284-1.6,1.96-2.376a1.582,1.582,0,0,1,2.371-.425l.332.175M34.55,164.324a3.063,3.063,0,0,0,1.586.138,13.143,13.143,0,0,0,2.432-.5,42.031,42.031,0,0,0,13.683-7.307,11.629,11.629,0,0,0,2.073-2.081,1.762,1.762,0,0,0,.454-.869c-6.979,3.154-13.886,6.2-20.228,10.624m90.179-31.176a14.41,14.41,0,0,0-3.294,2.151A7.857,7.857,0,0,0,120,136.933a1.055,1.055,0,0,0,.361,1.659.463.463,0,0,0,.658-.018,13.475,13.475,0,0,0,3.117-3.631,4.4,4.4,0,0,0,.591-1.8" transform="translate(492.131 4548.268)" fill="#e6001b"/>
    <path id="Path_56" data-name="Path 56" d="M262.146,70.252l-4.377-.033a5.231,5.231,0,0,0-.6,0c-.386.042-.515-.093-.511-.5.02-2.012.008-4.025.007-6.038,0-.478.011-.957,0-1.434-.016-.63-.178-.795-.821-.8-1.258-.011-2.518.013-3.776-.013-.39-.008-.459.133-.457.478q.017,3.7,0,7.4c0,1.039.154.9-.93.9q-2.907.01-5.815,0c-.582,0-.6-.012-.6-.582-.013-4.5-.087-9.006.17-13.5.138-2.409.385-4.81.668-7.207.261-2.221.458-4.451.675-6.677q.352-3.6.689-7.207c.276-2.9.544-5.807.826-8.71.27-2.777.555-5.553.831-8.329q.257-2.589.51-5.178c.012-.125.015-.252.033-.375.049-.331.171-.517.579-.515q4.872.029,9.743,0c.4,0,.5.15.537.525.453,4.1.834,8.2,1.232,12.306q.564,5.817,1.157,11.632c.414,4.127.77,8.261,1.262,12.378a143.222,143.222,0,0,1,.875,17.695c0,.175.019.351.028.526a34.563,34.563,0,0,0-1.937,3.255M256.3,54.038c-.707-7-1.409-13.94-2.111-20.884h-.167q-1.018,10.437-2.038,20.883Z" transform="translate(377.883 4603.62)" fill="#fff"/>
    <path id="Path_57" data-name="Path 57" d="M145.219,41.016q0-14.157,0-28.314c0-.957-.149-.83.837-.832,4.282,0,8.563.014,12.844-.013a3.607,3.607,0,0,1,2.7,1.1c.519.512,1.073.99,1.633,1.458a5.167,5.167,0,0,1,1.884,4.7c-.144,1.558-.121,3.117-.121,4.677,0,7.223-.007,14.446.017,21.669a3.055,3.055,0,0,1-1.035,2.467c-.878.791-1.7,1.65-2.524,2.494a3.291,3.291,0,0,1-2.508,1c-1.914-.019-3.828,0-5.742,0-.756,0-.7-.041-.7.692V69.1c0,1.058,0,1.058-1.075,1.058q-2.8,0-5.591,0c-.615,0-.621-.007-.622-.6q0-3.964,0-7.928V41.016m7.249-9.522h-.01q0,5.809,0,11.617c0,.823.1.918.907.924,1.057.008,2.114.018,3.17.018.752,0,1.029-.276,1.066-1.044.008-.175,0-.352,0-.528q0-11.051-.01-22.1a5.126,5.126,0,0,0-.005-.528c-.05-.48-.172-.607-.677-.61-1.308-.01-2.617.012-3.925,0-.368,0-.5.166-.515.488-.01.2,0,.4,0,.6V31.494" transform="translate(430.844 4603.659)" fill="#fff"/>
    <path id="Path_58" data-name="Path 58" d="M471.438,50.9c0,3.2.023,6.392-.007,9.587a23.243,23.243,0,0,1-1.34,7.84,18.369,18.369,0,0,1-14.437,12.385,23.808,23.808,0,0,1-13.139-.948A19.957,19.957,0,0,1,430.627,67.88a48.6,48.6,0,0,1-2.1-7.223,13.818,13.818,0,0,0-7.24-9.174,11.892,11.892,0,0,1-2.19-1.461,3.577,3.577,0,0,1-1.238-2.1,1.734,1.734,0,0,1,.792-1.886,4.756,4.756,0,0,1,2.175-.785,7.139,7.139,0,0,1,4.831,1.042,20.883,20.883,0,0,1,8.51,10.082,46.381,46.381,0,0,1,1.445,5.22,22.134,22.134,0,0,0,2.423,6.3,13.415,13.415,0,0,0,9.536,6.344,17.525,17.525,0,0,0,7.7-.247,12.064,12.064,0,0,0,8.9-9.034A21.268,21.268,0,0,0,464.8,59.2q-.007-9.209,0-18.42a3.309,3.309,0,0,1,1.5-2.958,3.311,3.311,0,0,1,5.148,2.735q.008,5.171,0,10.342" transform="translate(285.06 4590.085)" fill="#fff"/>
    <path id="Path_59" data-name="Path 59" d="M357.5,70.176V12.852c0-.1,0-.2,0-.3.014-.562.014-.572.6-.572q8.5,0,16.994,0c.572,0,.582.013.583.588q.007,3.02,0,6.039c0,.654-.006.661-.661.662q-4.72,0-9.441,0c-.8,0-.8,0-.85.821,0,.075-.007.151-.007.226Q364.7,28.2,364.7,36.09c0,.915.207,1.092,1.121,1.084q1.586-.012,3.172-.013c.916,0,1.076.177,1.066,1.12q-.022,2.037-.03,4.074c0,.352.028.7.028,1.055,0,.912-.191,1.118-1.122,1.069-.83-.044-1.66-.032-2.49-.04-.428,0-.856.007-1.284,0-.253-.006-.374.095-.363.352.006.151,0,.3,0,.453V62.226c0,.843-.028.728.728.729q4.607,0,9.215,0c.176,0,.353.012.529,0,.3-.023.394.124.385.406-.014.427,0,.855,0,1.283,0,1.686-.006,3.372.005,5.057,0,.35-.037.543-.476.542q-8.724-.022-17.448-.013a1.464,1.464,0,0,1-.228-.053" transform="translate(317.319 4603.596)" fill="#fff"/>
    <path id="Path_60" data-name="Path 60" d="M320.508,60.588l-.331-.175a1.583,1.583,0,0,0-2.372.425c-.676.772-1.31,1.581-1.96,2.376q-2.782,3.4-5.563,6.807a3.851,3.851,0,0,1-.321.313c-1.207-.024-2.415-.075-3.621-.061a2.58,2.58,0,0,1-2.019-.819c-.945-.977-1.931-1.913-2.851-2.914a2.778,2.778,0,0,1-.754-1.982q0-13.174-.031-26.349c-.007-6.82.01-13.64-.014-20.459a3,3,0,0,1,1-2.4c.945-.867,1.83-1.8,2.731-2.714a2.385,2.385,0,0,1,1.815-.75c2.921.02,5.842.015,8.764,0a2.375,2.375,0,0,1,1.706.665c1.1,1.033,2.167,2.1,3.205,3.2a2.246,2.246,0,0,1,.648,1.631c-.007,2.063.018,4.127.029,6.19,0,.857-.155,1.042-1,1.029q-2.757-.041-5.513,0c-.749.011-.921-.178-.924-.947,0-1.157.008-2.315.011-3.472,0-.826-.094-.927-.9-.93q-1.662-.006-3.324,0c-.765,0-.921.164-.921.933q0,3.662.007,7.324,0,13.288,0,26.577c0,2.441-.012,4.882-.018,7.323a5.547,5.547,0,0,0,.012.6c.074.684.34.95,1.03.916,1.083-.054,2.162-.037,3.244-.007.7.019.87-.175.87-.908,0-1.157-.012-2.315-.012-3.472,0-.836.183-1.023,1.012-1.025q2.719-.008,5.439,0c.833,0,.977.142.965.966a17.53,17.53,0,0,1-.042,2.109" transform="translate(347.71 4603.646)" fill="#fff"/>
    <path id="Path_61" data-name="Path 61" d="M201.782,68a2.145,2.145,0,0,1-.059-.821q0-27.171,0-54.342c0-.076,0-.151,0-.227.007-.65.007-.656.659-.656q3.021,0,6.042,0c.529,0,.53.013.543.545,0,.176,0,.352,0,.528V62.011c0,.931,0,.932.9.932h9.44c.586,0,.589-.066.588.558,0,2.211,0,4.423,0,6.6a.43.43,0,0,1-.384.121q-5.476,0-10.951,0c-.125,0-.25-.02-.375-.03a5.878,5.878,0,0,1,1.947-1.11,1.263,1.263,0,0,0,.829-.976,1.591,1.591,0,0,0-.087-1.028,6.353,6.353,0,0,0-3.9-3.733,2.32,2.32,0,0,0-1.833.038,3.236,3.236,0,0,0-1.14.963A20.673,20.673,0,0,0,201.782,68" transform="translate(400.63 4603.609)" fill="#fff"/>
    <path id="Path_62" data-name="Path 62" d="M45.077,23.205c0-2.416.013-4.832-.008-7.248a2.026,2.026,0,0,1,.662-1.608c.643-.6,1.257-1.236,1.872-1.866a1.923,1.923,0,0,1,1.477-.617q2.984.028,5.968,0a1.821,1.821,0,0,1,1.413.575c.719.74,1.454,1.465,2.188,2.189a1.15,1.15,0,0,1,.4.857q0,2.982.03,5.964c0,.3-.114.394-.4.392q-2.229-.012-4.458,0c-.3,0-.384-.119-.381-.4.013-1.157.01-2.315.01-3.473,0-.835-.143-.963-.967-.946-.629.012-1.258,0-1.887,0-.568,0-.733.141-.75.7-.019.6.013,1.207.012,1.811q-.007,4.53-.019,9.06c0,.2-.011.4,0,.6.041.523.165.647.708.651,1.284.009,2.569.027,3.853-.006a2.27,2.27,0,0,1,1.816.738c.623.656,1.273,1.289,1.914,1.929a1.656,1.656,0,0,1,.517,1.213c0,.276.024.553.024.83,0,4.656-.009,9.312.011,13.968a2.507,2.507,0,0,1-.8,2.021c-.632.576-1.223,1.2-1.823,1.807a1.859,1.859,0,0,1-1.414.583c-1.989-.015-3.979-.012-5.968,0a1.794,1.794,0,0,1-1.3-.479c-.57-.533-1.157-1.047-1.724-1.583a3.132,3.132,0,0,1-1.039-2.5c.073-1.685.093-3.37.073-5.056,0-.289.094-.4.388-.4,1.461.009,2.922.012,4.382,0,.354,0,.413.159.411.459-.01,1.183-.007,2.366,0,3.549,0,.779.007.778.807.785.679.007,1.359.016,2.038.023.6.006.74-.117.743-.758.008-1.535,0-3.071,0-4.606,0-2.139.007-4.278,0-6.418,0-.81-.113-.913-.91-.89a38.744,38.744,0,0,1-4-.036,2.048,2.048,0,0,1-1.34-.6q-.862-.846-1.723-1.693a2.92,2.92,0,0,1-.808-2.2q0-3.662,0-7.324Z" transform="translate(484.434 4603.654)" fill="#fff"/>
    <path id="Path_63" data-name="Path 63" d="M91.149,35.012V51.919c0,.151,0,.3,0,.453-.014.563-.015.572-.6.574q-2.039.008-4.079,0c-.532,0-.532-.013-.545-.541,0-.151,0-.3,0-.453V17.911c0-.859,0-.859-.892-.859-1.108,0-2.215-.013-3.323.007-.373.007-.467-.126-.462-.48.018-1.333.005-2.667.008-4,0-.649.006-.655.662-.656q6.118,0,12.236,0c.428,0,.856.012,1.284,0,.3-.011.4.12.4.4,0,1.459-.008,2.918,0,4.377,0,.328-.175.359-.43.357-1.133-.005-2.266,0-3.4,0-.176,0-.353.006-.529,0-.214-.009-.333.072-.329.3,0,.2,0,.4,0,.6V35.012" transform="translate(465.052 4603.627)" fill="#fff"/>
    <path id="Path_64" data-name="Path 64" d="M455.726,17.13q0-6.908,0-13.815A3.213,3.213,0,0,1,457.915.2a3.321,3.321,0,0,1,4.454,2.989c.005.1,0,.2,0,.3q0,13.7,0,27.4a3.25,3.25,0,0,1-1.727,3.048,3.286,3.286,0,0,1-4.913-2.846c-.019-4.656-.005-9.311-.005-13.967" transform="translate(264.794 4610)" fill="#fff"/>
    <path id="Path_65" data-name="Path 65" d="M483.634,39c0,2.365.01,4.731,0,7.1a3.252,3.252,0,0,1-2.58,3.353,3.3,3.3,0,0,1-3.983-2.541,5.442,5.442,0,0,1-.092-.975q-.008-6.983,0-13.966a3.711,3.711,0,0,1,.292-1.62,3.321,3.321,0,0,1,6.356,1.179c.04.955.011,1.912.012,2.869q0,2.3,0,4.6" transform="translate(253.429 4594.822)" fill="#fff"/>
    <path id="Path_66" data-name="Path 66" d="M498.3,42.105c0-2.113-.014-4.226.005-6.338a3.3,3.3,0,0,1,2.559-3.151,3.335,3.335,0,0,1,3.8,1.9,3.2,3.2,0,0,1,.286,1.313c0,4.225.013,8.451-.011,12.676a3.317,3.317,0,0,1-6.634-.062c-.012-2.113,0-4.226,0-6.338" transform="translate(242.026 4592.599)" fill="#fff"/>
    <path id="Path_67" data-name="Path 67" d="M200.023,126.874a20.672,20.672,0,0,1,2.221-3.659,3.237,3.237,0,0,1,1.14-.963,2.32,2.32,0,0,1,1.833-.038,6.353,6.353,0,0,1,3.9,3.733,1.591,1.591,0,0,1,.087,1.028,1.263,1.263,0,0,1-.829.976,5.878,5.878,0,0,0-1.947,1.11,9.725,9.725,0,0,0-2.409,2.462,21.016,21.016,0,0,0-1.729,2.82c-.506.987-.911,1.148-1.944.8a2.635,2.635,0,0,1-1.851-3.248,25.2,25.2,0,0,1,1.528-5.026" transform="translate(402.389 4544.733)" fill="#e6001b"/>
    <path id="Path_68" data-name="Path 68" d="M281.05,131.488a34.4,34.4,0,0,1,1.937-3.255c.34-.369.658-.762,1.025-1.1a2.263,2.263,0,0,1,2.511-.511,6.2,6.2,0,0,1,3.748,3.785,1.413,1.413,0,0,1-.831,1.9,9.248,9.248,0,0,0-3.537,2.627,18.027,18.027,0,0,0-2.439,3.706c-.522,1.049-.95,1.235-2.037.831a2.513,2.513,0,0,1-1.8-3,17.068,17.068,0,0,1,1.137-4.284c.093-.233.188-.465.282-.7" transform="translate(358.98 4542.383)" fill="#e6001b"/>
  </g>
</svg>
