<svg xmlns="http://www.w3.org/2000/svg" width="55.079" height="37.674" viewBox="0 0 55.079 37.674">
  <g id="Group_446" data-name="Group 446" transform="translate(0.442 1.631) rotate(-3)">
    <path id="Path_4756" data-name="Path 4756" d="M80.169,39.473A45.4,45.4,0,0,1,79.137,26.2a25.911,25.911,0,0,1,4.682-13.121" transform="translate(-65.106 -11.154)" fill="none" stroke="#292929" stroke-linecap="round" stroke-linejoin="round" stroke-width="1"/>
    <path id="Path_4757" data-name="Path 4757" d="M39.42,32.184c-.659-4.786-1.932-9.688-5.059-13.371a17,17,0,0,0-14.3-5.692A19.178,19.178,0,0,0,6.612,20.862a22.018,22.018,0,0,0-4,15.115,12.315,12.315,0,0,0,7.456,3.369,50.416,50.416,0,0,0,8.28.082c3.69-.559,6.977-2.546,10.289-4.266S35.6,31.92,39.42,32.184Z" transform="translate(-2.5 -11.136)" fill="none" stroke="#292929" stroke-linecap="round" stroke-linejoin="round" stroke-width="1"/>
    <path id="Path_4758" data-name="Path 4758" d="M92.665,4.632a3.1,3.1,0,0,1,.01-.671,1.6,1.6,0,0,1,.639-1.143,2.256,2.256,0,0,1,1.143-.281c.475-.027.952-.039,1.429-.036a1.865,1.865,0,0,1,.886.16,1.3,1.3,0,0,1,.6.959,3.071,3.071,0,0,1-.022.918" transform="translate(-76.275 -2.5)" fill="none" stroke="#292929" stroke-linecap="round" stroke-linejoin="round" stroke-width="1"/>
    <path id="Path_4759" data-name="Path 4759" d="M92.18,157.835a47.238,47.238,0,0,0,13.646,7.259c2.117.732,4.43,1.337,6.566.671,2.153-.671,3.708-2.49,5.515-3.837a13.914,13.914,0,0,1,1.54-1" transform="translate(-75.889 -129.617)" fill="none" stroke="#292929" stroke-linecap="round" stroke-linejoin="round" stroke-width="1"/>
    <path id="Path_4760" data-name="Path 4760" d="M249.992,165.446a4.049,4.049,0,0,0-2.081-.245,14.163,14.163,0,0,0-5.624,1.734c.564.431,1.107.894,1.671,1.325a7.936,7.936,0,0,0,3.2,1.637,3.583,3.583,0,0,0,3.338-.928,2.348,2.348,0,0,0-.063-3.245,1.991,1.991,0,0,0-.436-.279h0" transform="translate(-198.728 -135.62)" fill="none" stroke="#292929" stroke-linecap="round" stroke-linejoin="round" stroke-width="1"/>
    <path id="Path_4761" data-name="Path 4761" d="M219.431,127.113h0c-4.973-3.02-9.558-5.791-14.489-8.785" transform="translate(-168.165 -97.287)" fill="none" stroke="#292929" stroke-linecap="round" stroke-linejoin="round" stroke-width="1"/>
  </g>
</svg>
