<svg xmlns="http://www.w3.org/2000/svg" width="51.678" height="58.903" viewBox="0 0 51.678 58.903">
  <g id="Jacket_Icon" data-name="Jacket Icon" transform="translate(0.254 0.304)">
    <path id="Path_4745" data-name="Path 4745" d="M107.841,8.327a9.4,9.4,0,0,0,5.1-1.67,2.182,2.182,0,0,0,.912-1.036,1.606,1.606,0,0,0-.424-1.533,3.694,3.694,0,0,0-1.414-.856,11.208,11.208,0,0,0-8.107.052c-.863.345-1.8.993-1.768,1.922a2.254,2.254,0,0,0,1.149,1.614A8.539,8.539,0,0,0,107.841,8.327Z" transform="translate(-82.315 -2.015)" fill="none" stroke="#000" stroke-linecap="round" stroke-linejoin="round" stroke-width="1.5"/>
    <path id="Path_4746" data-name="Path 4746" d="M97.12,14.411a18.092,18.092,0,0,0-1.271,4.156A9.552,9.552,0,0,0,103,21.988a8.877,8.877,0,0,0,7.029-3.359,11.173,11.173,0,0,0-1.188-4.075" transform="translate(-77.243 -11.614)" fill="none" stroke="#000" stroke-linecap="round" stroke-linejoin="round" stroke-width="1.5"/>
    <path id="Path_4747" data-name="Path 4747" d="M20.621,35.819a37.1,37.1,0,0,0-7.382,2.974A16.091,16.091,0,0,0,7.3,44.178c-2.034,3.271-2.433,7.265-2.78,11.1L2.563,76.905c-.153,1.694-.139,3.75,1.358,4.632,1.886.223,3.254.316,5.63.56,1.779-1.779,3.209-13.992,4.082-20.861.143,4.048.181,9.4.185,16.036a2.169,2.169,0,0,0,1.488,2.067,39.038,39.038,0,0,0,25.4-.605,2.171,2.171,0,0,0,1.4-2.041C42.1,70.34,42,65.23,42,61.136q.975,8.042,1.949,16.084c.207,1.7.572,3.657,2.079,4.638,1.913-.053,3.309-.107,5.58-.042,1.691-2.141,1.134-7.448.761-11.179l-1.659-16.6c-.432-4.325-1.107-8.544-3.888-11.885-2.944-3.537-7.559-5.146-12.021-6.273" transform="translate(-2.015 -28.866)" fill="none" stroke="#000" stroke-linecap="round" stroke-linejoin="round" stroke-width="1.5"/>
    <path id="Path_4748" data-name="Path 4748" d="M8.4,271.333c-.141,1.479-.2,2.935-.342,4.413a17.65,17.65,0,0,0,5.045.765c.282-1.565.644-3.053.926-4.618" transform="translate(-6.496 -218.662)" fill="none" stroke="#000" stroke-linecap="round" stroke-linejoin="round" stroke-width="1.5"/>
    <path id="Path_4749" data-name="Path 4749" d="M226.742,272.81c.156,1.475.234,2.919.391,4.394a20.536,20.536,0,0,0,5.253.072c-.064-1.57,0-2.938-.064-4.508" transform="translate(-182.727 -219.818)" fill="none" stroke="#000" stroke-linecap="round" stroke-linejoin="round" stroke-width="1.5"/>
    <path id="Path_4750" data-name="Path 4750" d="M63.847,255.262c-.021,1.294-.034,2.583.01,3.859a31.292,31.292,0,0,0,13.552,3.018A31.611,31.611,0,0,0,90.967,259.1q-.082-2.143-.166-4.286" transform="translate(-51.437 -205.345)" fill="none" stroke="#000" stroke-linecap="round" stroke-linejoin="round" stroke-width="1.5"/>
    <path id="Path_4751" data-name="Path 4751" d="M131.953,32.475v0q-.027,2.031-.044,4.064-.186,20.965.223,41.927.043,2.248.1,4.5" transform="translate(-106.255 -26.171)" fill="none" stroke="#000" stroke-linecap="round" stroke-linejoin="round" stroke-width="1.5"/>
    <path id="Path_4752" data-name="Path 4752" d="M81.626,182.915a42.27,42.27,0,0,1-2.991,9.424" transform="translate(-63.37 -147.407)" fill="none" stroke="#000" stroke-linecap="round" stroke-linejoin="round" stroke-width="1.5"/>
    <path id="Path_4753" data-name="Path 4753" d="M172.487,183.176a27.1,27.1,0,0,0,2.285,9.158" transform="translate(-139.004 -147.618)" fill="none" stroke="#000" stroke-linecap="round" stroke-linejoin="round" stroke-width="1.5"/>
    <path id="Path_4754" data-name="Path 4754" d="M59.415,69.082c0-6.535-.326-9.059.161-13.534a33.259,33.259,0,0,1,8.961-9.993" transform="translate(-47.795 -36.712)" fill="none" stroke="#000" stroke-linecap="round" stroke-linejoin="round" stroke-width="1.5"/>
    <path id="Path_4755" data-name="Path 4755" d="M158.792,45.542A33.416,33.416,0,0,1,168.371,56.7c-.021,4-.2,7.361-.417,12.271" transform="translate(-127.967 -36.701)" fill="none" stroke="#000" stroke-linecap="round" stroke-linejoin="round" stroke-width="1.5"/>
  </g>
</svg>
