<svg xmlns="http://www.w3.org/2000/svg" xmlns:xlink="http://www.w3.org/1999/xlink" width="181.426" height="78" viewBox="0 0 181.426 78">
  <defs>
    <clipPath id="clip-path">
      <rect id="Rectangle_32" data-name="Rectangle 32" width="181.426" height="78" fill="none"/>
    </clipPath>
  </defs>
  <g id="Group_57" data-name="Group 57" clip-path="url(#clip-path)">
    <path id="Path_53" data-name="Path 53" d="M449.917,159.527a1.941,1.941,0,0,1-.54.662c-2.463,2.059-4.915,4.129-7.385,6.179a6.764,6.764,0,0,1-2.763,1.387,2.084,2.084,0,0,1-1.449-.162,3.361,3.361,0,0,1-1.973-2.682,2.8,2.8,0,0,1,.306-1.486,38.41,38.41,0,0,1,2.1-3.863c.337-.573.692-1.136,1.032-1.708a3.246,3.246,0,0,0,.25-.5.564.564,0,0,0-.28-.816c-.116-.07-.24-.129-.363-.187a1.238,1.238,0,0,0-1.808.328,39.611,39.611,0,0,1-3.6,3.266c-2.445,2.133-4.911,4.239-7.371,6.354a7.928,7.928,0,0,1-2.246,1.306,3.015,3.015,0,0,1-4.056-2.464,3.91,3.91,0,0,1,.153-1.669c.256-.813.531-1.619.8-2.428a.489.489,0,0,0,.047-.4c-.278.242-.544.465-.8.7q-3.618,3.255-7.233,6.512a5.8,5.8,0,0,1-2.1,1.234,2.172,2.172,0,0,1-2.945-1.76,9.908,9.908,0,0,1-.062-2.348c.013-.289.032-.578.048-.868-.2-.046-.295.1-.411.184-.868.633-1.722,1.288-2.623,1.876a19.007,19.007,0,0,1-5.969,2.726,8.251,8.251,0,0,1-2.939.281,3.885,3.885,0,0,1-3.358-4.775,15.944,15.944,0,0,1,2.242-5.183,28.366,28.366,0,0,1,5.255-6.049c.476-.415.967-.815,1.42-1.254a2.686,2.686,0,0,1,2.743-.664,4.458,4.458,0,0,1,1.129.47,2.77,2.77,0,0,1,1.32,3.506,14.4,14.4,0,0,1-9.142,9.218c-.2.069-.5.047-.589.255a1.283,1.283,0,0,0,0,.856,1.12,1.12,0,0,0,1.043.843,5.36,5.36,0,0,0,1.826-.167,10.9,10.9,0,0,0,3.327-1.411,41.413,41.413,0,0,0,9.231-7.574,32.867,32.867,0,0,1,5.556-4.826,4.321,4.321,0,0,1,4.78-.345,2.633,2.633,0,0,1,1.415,1.666,1.869,1.869,0,0,1-.2,1.479.648.648,0,0,1-.547.408c-.279,0-.419-.2-.528-.422-.091-.183-.165-.374-.249-.56a2.484,2.484,0,0,0-.363-.615.908.908,0,0,0-1.318-.2,14.3,14.3,0,0,0-2.992,2.7c-2.192,2.858-4.315,5.766-6.454,8.663a1.487,1.487,0,0,0-.334,1.076,3.077,3.077,0,0,0,1.036-.625q4.258-3.49,8.513-6.983a37.831,37.831,0,0,1,3.487-2.509,2.748,2.748,0,0,1,3.394.736.883.883,0,0,1,.11.959c-.112.229-.225.459-.353.68-.884,1.518-1.764,3.039-2.662,4.549a6.347,6.347,0,0,0-.645,1.77c-.064.261.07.385.334.3a3.558,3.558,0,0,0,1.04-.533,82.266,82.266,0,0,0,8.323-7.04,16.029,16.029,0,0,0,1.786-1.771c-.105-.192-.313-.187-.473-.245a10.356,10.356,0,0,1-1.328-.529,1.607,1.607,0,0,1-.83-2.228,3.829,3.829,0,0,1,.612-1.059,9.086,9.086,0,0,1,5.09-3.221,3.928,3.928,0,0,1,1.927.046,1.347,1.347,0,0,1,1.094,1.643,4.2,4.2,0,0,1-.537,1.482,18.936,18.936,0,0,1-1.45,2.229c-.091.123-.178.251-.274.37-.121.151-.136.253.08.34.364.145.721.307,1.074.477a10.507,10.507,0,0,1,1.042.543,2.2,2.2,0,0,1,1,2.823c-.253.723-.566,1.425-.86,2.133-.346.834-.7,1.664-1.052,2.5a10.209,10.209,0,0,0-.494,1.718c-.054.238.078.369.3.287a3.615,3.615,0,0,0,1.087-.555q3.468-2.838,6.941-5.671c.158-.129.3-.284.449-.419.364-.32.635-.287.962.079.1.114.1.288.248.364Zm-45.632-6.743a29.91,29.91,0,0,0-6.594,8.745.433.433,0,0,0,.423-.027,5.242,5.242,0,0,0,1.4-.834,12.771,12.771,0,0,0,1.99-1.98,14.46,14.46,0,0,0,2.521-4.181,3.444,3.444,0,0,0,.261-1.724m35.514-2.472a5.594,5.594,0,0,0-3.077,2.136.863.863,0,0,0-.088.95c.174.389.5.476.8.188a11.541,11.541,0,0,0,1.666-1.862,4.741,4.741,0,0,0,.7-1.412" transform="translate(-268.491 -101.59)" fill="#e6001b"/>
    <path id="Path_54" data-name="Path 54" d="M0,11.881c.189.106.389.025.582.026,2.425.007,4.849,0,7.274,0,.068,0,.137.006.2,0,.234-.024.3.1.287.308-.008.136,0,.273,0,.409q0,16.586,0,33.172c0,.755-.087.657.644.662.7,0,1.4,0,2.1,0,.587,0,.505-.036.507.532q0,1.971,0,3.942c0,.554.07.494-.485.494q-5.046,0-10.092,0c-.341,0-.682-.007-1.022-.011V46.5c.9,0,1.809,0,2.713-.007.674-.006.582.109.582-.6q0-14.21,0-28.419c0-.12-.008-.24,0-.358.014-.179-.062-.237-.237-.235C2.041,16.893,1.02,16.9,0,16.9Z" transform="translate(0 -8.132)" fill="#070807"/>
    <path id="Path_55" data-name="Path 55" d="M129.282,115.8a11.666,11.666,0,0,1,1.238,1.069.486.486,0,0,1,.122.635,4.358,4.358,0,0,1-.468.79q-1.615,2.244-3.231,4.488a9.367,9.367,0,0,0-.728,1.158c.89,0,1.721,0,2.551,0a3.37,3.37,0,0,1,1.015.094,1.486,1.486,0,0,1,.852.617,3.017,3.017,0,0,1,.356,2.691c-.141.426-.2.453-.628.368-1.439-.284-2.876-.574-4.315-.858-.3-.059-.6-.115-.907-.148a1.074,1.074,0,0,0-1.02.467,4.411,4.411,0,0,0-.327.518q-4.038,7.3-8.075,14.594a5.311,5.311,0,0,0-.448,1.029.894.894,0,0,0-.006.676,3.408,3.408,0,0,0,1.264-.6c2.26-1.849,4.518-3.7,6.734-5.6a3.819,3.819,0,0,0,.791-1c1.2-2.046,2.563-3.989,3.864-5.971a2.232,2.232,0,0,1,.373-.42,1.072,1.072,0,0,1,1.4-.169,7.866,7.866,0,0,1,1.631,1.311.392.392,0,0,1,.089.465,2.344,2.344,0,0,1-.342.625,43.05,43.05,0,0,0-5.549,9.989,3.85,3.85,0,0,0-.246.937c-.018.129-.1.271.077.352.145.066.218-.049.3-.134.443-.473.9-.932,1.3-1.446q3.262-4.21,6.528-8.417c.471-.608.982-1.182,1.5-1.751a1.151,1.151,0,0,1,1.795-.172,13.06,13.06,0,0,1,1.286,1.171.467.467,0,0,1,.075.671c-.384.664-.771,1.328-1.122,2.009a20.508,20.508,0,0,0-2.016,5.825,7.843,7.843,0,0,0,.057,1.621,10.03,10.03,0,0,0,1.34-1.067,42.827,42.827,0,0,0,3.737-4.347,44.554,44.554,0,0,0,3.081-4.708,15.782,15.782,0,0,0,1.067-2.376,2.5,2.5,0,0,0,.006-1.8c-.152-.41-.3-.822-.462-1.269a2.41,2.41,0,0,1,.89-.06,3.053,3.053,0,0,1,2.482,4.188,12.223,12.223,0,0,1-.549,1.155,35.7,35.7,0,0,1-9.247,11.35,8.852,8.852,0,0,1-1.347.927,3.1,3.1,0,0,1-2.947.041,4.785,4.785,0,0,1-.985-.64,2.873,2.873,0,0,1-1.04-2.644c.069-.7.283-1.368.416-2.054a3.231,3.231,0,0,0,.077-.746c-.2.074-.278.248-.377.382a54.118,54.118,0,0,1-4.574,5.314,9.77,9.77,0,0,1-1.284,1.173,2.548,2.548,0,0,1-3.382-.136,2.258,2.258,0,0,1-.854-1.684,4.9,4.9,0,0,1,.145-1.573c.04-.163.068-.328.108-.525a.972.972,0,0,0-.483.305c-1.234,1-2.445,2.027-3.769,2.908a16.091,16.091,0,0,1-1.532.926,2.868,2.868,0,0,1-3.938-1.346,2.465,2.465,0,0,1,.064-2.22c.587-1.231,1.173-2.463,1.777-3.686.9-1.819,1.808-3.632,2.714-5.447a3.372,3.372,0,0,0,.348-.914,1.318,1.318,0,0,0-.469.426c-1.031,1.185-2.032,2.4-3.131,3.521-2.018,2.064-4.124,4.037-6.279,5.956a5.077,5.077,0,0,1-2.944,1.307,2.54,2.54,0,0,1-2.383-1.121,4.983,4.983,0,0,1-.711-1.466.857.857,0,0,0-.15-.364,1.787,1.787,0,0,0-.464.333,43.236,43.236,0,0,1-5.059,3.475,2.669,2.669,0,0,1-2.2.365,3.14,3.14,0,0,1-1.987-4.256c.731-1.6,1.665-3.092,2.546-4.611.248-.428.5-.853.731-1.29a.759.759,0,0,0-.3-1.137,1.539,1.539,0,0,0-2.078.287q-1.6,1.73-3.351,3.31c-2.551,2.3-5.28,4.382-8.029,6.437a10.666,10.666,0,0,1-1.814,1.048,2.97,2.97,0,0,1-4.211-2.159,3.52,3.52,0,0,1,.072-1.569c.207-.829.527-1.62.791-2.429a.354.354,0,0,0,.033-.28c-.711.2-1.436.357-2.167.482a12.617,12.617,0,0,0-1.841.43,4.583,4.583,0,0,0-2.191,1.447,14.768,14.768,0,0,1-2.808,2.605c-.523.384-1.044.772-1.586,1.126a3.6,3.6,0,0,1-3.516.278,2.008,2.008,0,0,1-.358-.2,1.04,1.04,0,0,1-.352-1.547,6.686,6.686,0,0,1,.825-1.042,6.287,6.287,0,0,1,2.2-1.628,10,10,0,0,0,3.9-3.151,22.645,22.645,0,0,0,1.972-3.108c.539-.988,1.069-1.981,1.606-2.97a1.53,1.53,0,0,0,.106-1.366,18.9,18.9,0,0,0-1.945,1.331,72.279,72.279,0,0,0-9.466,9.769,31.574,31.574,0,0,0-6.253,13.685,7.869,7.869,0,0,1-.556,2.118c-.046.09-.09.181-.125.251a3.475,3.475,0,0,1-2.1-1.3,3.685,3.685,0,0,1-.607-3.884c.956-2.391,2-4.744,3.093-7.074.923-1.963,2.045-3.817,3.1-5.708a1.8,1.8,0,0,0,.322-1.04c-.119-.091-.215-.034-.3,0q-2.576.915-5.15,1.837c-.528.19-.646.369-.555.928a4.734,4.734,0,0,1-.909,3.575,19.2,19.2,0,0,1-4.237,4.347,22.023,22.023,0,0,1-9.316,4,4.847,4.847,0,0,1-5.054-2.634,2.255,2.255,0,0,1,.26-2.5,4.513,4.513,0,0,1,.644-.657,23.305,23.305,0,0,1,5.584-3.576q3.219-1.5,6.441-3a2.89,2.89,0,0,0,1.052-.69c-.813-.165-1.587-.24-2.359-.324a57.23,57.23,0,0,1-6.393-.826,8.356,8.356,0,0,1-2.2-.8,3.957,3.957,0,0,1-2.132-4.505,9.684,9.684,0,0,1,.925-2.7,21.885,21.885,0,0,1,4.133-5.755,39.705,39.705,0,0,1,8.506-6.774,20.206,20.206,0,0,1,5.861-2.349,6.618,6.618,0,0,1,5.519,1.22,3.91,3.91,0,0,1,1.628,4.223,20.959,20.959,0,0,1-5.884,10.972,6.175,6.175,0,0,1-1.7,1.214,3.838,3.838,0,0,1-4.5-.893c-.783-.869-.462-1.194.293-1.475a11.549,11.549,0,0,0,4.618-3.378,20.983,20.983,0,0,0,4.234-7.3,5.178,5.178,0,0,0,.215-.893,1.694,1.694,0,0,0-2.149-1.873,6.241,6.241,0,0,0-.968.324,26.52,26.52,0,0,0-8.163,5.367c-2.377,2.214-4.562,4.612-6.716,7.038a7.555,7.555,0,0,0-1.505,2.994,1.579,1.579,0,0,0,1.018,2.065,12.868,12.868,0,0,0,2.108.612c1.777.419,3.584.683,5.376,1.026a12.488,12.488,0,0,1,3.861,1.292,1.141,1.141,0,0,0,.937.067c1.6-.471,3.207-.931,4.808-1.405,1.029-.3,2.046-.65,3.081-.933a2.033,2.033,0,0,0,1.174-.844c.509-.727,1.019-1.453,1.525-2.182q.89-1.283,1.772-2.571a2.757,2.757,0,0,1,.618-.677,1.109,1.109,0,0,1,1.2-.134,5.079,5.079,0,0,1,1.616,1.233.65.65,0,0,1,.1.794,3.671,3.671,0,0,0-.367.85c.524-.44.995-.829,1.459-1.225,1.066-.91,2.175-1.763,3.317-2.573a2.275,2.275,0,0,1,2.064-.484,3.291,3.291,0,0,1,2.131,1.995,2.215,2.215,0,0,1-.032,1.5c-.366,1.191-.842,2.341-1.311,3.493a13.443,13.443,0,0,1-1.023,2.172.309.309,0,0,0-.063.258,6.881,6.881,0,0,0,1.347-.214c.956-.176,1.908-.371,2.865-.541a.976.976,0,0,0,.7-.514c1.217-1.955,2.454-3.9,3.688-5.843a2.032,2.032,0,0,1,.478-.529,1.229,1.229,0,0,1,1.345-.166,9.091,9.091,0,0,1,2.036,1.451.256.256,0,0,1,.077.316,4.526,4.526,0,0,1-.4.828c-1.6,2.758-3.2,5.52-4.811,8.271a5.676,5.676,0,0,0-.618,1.722c-.062.292.078.421.356.325a3.446,3.446,0,0,0,1.086-.555c3.411-2.787,6.839-5.554,10.143-8.469.11-.1.265-.163.3-.356l-1.238-.443a3.9,3.9,0,0,1-1.05-.519,1.472,1.472,0,0,1-.463-2.032,8.587,8.587,0,0,1,3.17-3.339,7.141,7.141,0,0,1,3.709-.995c.12,0,.24,0,.358.015A1.473,1.473,0,0,1,96,127.871a5.083,5.083,0,0,1-.579,1.358c-.41.73-.889,1.416-1.352,2.112-.131.2-.256.4-.408.634.4.168.754.316,1.109.47a6.788,6.788,0,0,1,1.349.724,2.2,2.2,0,0,1,.916,2.512,8.114,8.114,0,0,1-.49,1.343q-.57,1.341-1.159,2.675a15.078,15.078,0,0,0-.961,2.969,4.02,4.02,0,0,0,1.391-.61q2.858-2.289,5.715-4.58a2.54,2.54,0,0,0,.567-.719c.6-.995,1.192-1.99,1.795-2.981a4.957,4.957,0,0,1,.475-.666,2.293,2.293,0,0,1,3.751.277.836.836,0,0,1,.115.776,4.707,4.707,0,0,1-.292.652q-1.331,2.45-2.673,4.894a3.516,3.516,0,0,0-.38,1.265c-.035.264.1.355.332.23a3.533,3.533,0,0,0,.959-.672c3.844-4.072,7.743-8.094,11.257-12.463a1.754,1.754,0,0,0,.475-.884c-.117-.135-.222-.019-.322.013-.585.185-1.171.365-1.749.57-.207.073-.258.012-.312-.177a1.524,1.524,0,0,1,.85-1.915,11.4,11.4,0,0,1,2-.606l.79-.211a3.528,3.528,0,0,0,2.087-1.379c.262-.377.577-.718.867-1.074a2.6,2.6,0,0,0,.217-.212q1.888-2.307,3.773-4.617c.441-.539.871-1.088,1.329-1.612a1.073,1.073,0,0,1,1.608-.288l.225.119m-96,32.8a2.078,2.078,0,0,0,1.075.094,8.914,8.914,0,0,0,1.65-.342,28.508,28.508,0,0,0,9.281-4.956,7.887,7.887,0,0,0,1.406-1.412,1.2,1.2,0,0,0,.308-.589c-4.734,2.139-9.418,4.208-13.72,7.206m61.165-21.146a9.773,9.773,0,0,0-2.234,1.459,5.329,5.329,0,0,0-.972,1.109.716.716,0,0,0,.245,1.125.314.314,0,0,0,.446-.012,9.14,9.14,0,0,0,2.114-2.463,2.981,2.981,0,0,0,.4-1.218" transform="translate(-20.951 -79.01)" fill="#e6001b"/>
    <path id="Path_56" data-name="Path 56" d="M256.388,51.488l-2.969-.022a3.547,3.547,0,0,0-.41,0c-.262.028-.349-.063-.346-.339.014-1.365.005-2.73.005-4.1,0-.324.008-.649,0-.973-.011-.427-.121-.539-.557-.542-.854-.007-1.708.009-2.561-.009-.264-.006-.311.09-.31.324q.011,2.509,0,5.017c0,.7.1.61-.631.613q-1.972.007-3.944,0c-.4,0-.4-.008-.4-.4-.009-3.054-.059-6.109.115-9.16.093-1.634.261-3.262.453-4.888.177-1.507.311-3.019.458-4.529q.239-2.444.467-4.888c.187-1.969.369-3.939.56-5.907.183-1.883.376-3.766.564-5.65q.175-1.756.346-3.512c.008-.085.01-.171.022-.255.033-.224.116-.351.393-.349q3.3.019,6.608,0c.269,0,.336.1.364.356.307,2.779.566,5.564.836,8.347q.382,3.946.785,7.889c.281,2.8.522,5.6.856,8.4a97.143,97.143,0,0,1,.594,12c0,.119.013.238.019.357a23.44,23.44,0,0,0-1.314,2.208m-3.964-11c-.48-4.746-.956-9.455-1.432-14.165h-.113q-.691,7.079-1.382,14.164Z" transform="translate(-167.176 -8.166)" fill="#070807"/>
    <path id="Path_57" data-name="Path 57" d="M145.217,31.634q0-9.6,0-19.2c0-.649-.1-.563.568-.564,2.9,0,5.808.009,8.712-.009a2.447,2.447,0,0,1,1.83.743c.352.347.728.671,1.108.989a3.5,3.5,0,0,1,1.278,3.186c-.1,1.057-.082,2.114-.082,3.172,0,4.9-.005,9.8.012,14.7a2.072,2.072,0,0,1-.7,1.673c-.6.536-1.15,1.119-1.712,1.692a2.232,2.232,0,0,1-1.7.68c-1.3-.013-2.6,0-3.894,0-.512,0-.472-.028-.472.47V50.685c0,.718,0,.718-.729.718q-1.9,0-3.792,0c-.417,0-.421,0-.422-.41q0-2.688,0-5.377V31.634m4.917-6.458h-.007q0,3.94,0,7.88c0,.558.069.623.615.627.717.006,1.434.012,2.15.012.51,0,.7-.187.723-.708.006-.119,0-.239,0-.358q0-7.5-.007-14.991a3.476,3.476,0,0,0,0-.358c-.034-.326-.117-.411-.459-.414-.887-.007-1.775.008-2.662,0-.249,0-.339.113-.35.331-.007.136,0,.273,0,.409v7.572" transform="translate(-99.392 -8.115)" fill="#070807"/>
    <path id="Path_58" data-name="Path 58" d="M454.188,46.507c0,2.167.016,4.335,0,6.5a15.764,15.764,0,0,1-.909,5.317,12.459,12.459,0,0,1-9.792,8.4,16.148,16.148,0,0,1-8.911-.643,13.536,13.536,0,0,1-8.063-8.063,32.962,32.962,0,0,1-1.423-4.9,9.372,9.372,0,0,0-4.911-6.222,8.065,8.065,0,0,1-1.486-.991,2.426,2.426,0,0,1-.84-1.423,1.176,1.176,0,0,1,.537-1.279,3.226,3.226,0,0,1,1.475-.533,4.842,4.842,0,0,1,3.277.707,14.164,14.164,0,0,1,5.772,6.839,31.459,31.459,0,0,1,.98,3.541,15.012,15.012,0,0,0,1.643,4.273,9.1,9.1,0,0,0,6.468,4.3,11.886,11.886,0,0,0,5.223-.168,8.183,8.183,0,0,0,6.036-6.128,14.424,14.424,0,0,0,.422-3.9q0-6.246,0-12.493a2.244,2.244,0,0,1,1.015-2.007,2.246,2.246,0,0,1,3.492,1.855q.005,3.507,0,7.015" transform="translate(-285.981 -25.489)" fill="#070807"/>
    <path id="Path_59" data-name="Path 59" d="M357.5,51.451V12.57c0-.068,0-.136,0-.2.009-.381.01-.388.4-.388q5.764,0,11.527,0c.388,0,.395.009.4.4q0,2.048,0,4.1c0,.443,0,.448-.448.449q-3.2,0-6.4,0c-.544,0-.544,0-.577.557,0,.051-.005.1-.005.153q-.008,5.349-.012,10.7c0,.621.14.741.76.736q1.076-.008,2.151-.009c.622,0,.73.12.723.76Q366,31.2,366,32.582c0,.239.019.477.019.716,0,.618-.13.758-.761.725-.563-.03-1.126-.021-1.689-.027-.29,0-.581,0-.871,0-.171,0-.254.064-.246.239,0,.1,0,.2,0,.307V46.059c0,.572-.019.494.494.494q3.125,0,6.25,0c.12,0,.24.008.358,0,.206-.016.267.084.261.275-.009.29,0,.58,0,.87,0,1.143,0,2.287,0,3.43,0,.238-.025.368-.323.368q-5.917-.015-11.834-.009a.994.994,0,0,1-.155-.036" transform="translate(-244.692 -8.197)" fill="#070807"/>
    <path id="Path_60" data-name="Path 60" d="M314.126,44.917,313.9,44.8a1.073,1.073,0,0,0-1.609.288c-.459.523-.889,1.073-1.329,1.612q-1.887,2.308-3.773,4.617a2.61,2.61,0,0,1-.217.212c-.819-.016-1.638-.051-2.456-.041a1.75,1.75,0,0,1-1.369-.555c-.641-.662-1.31-1.3-1.934-1.977a1.884,1.884,0,0,1-.512-1.344q0-8.935-.021-17.871c0-4.626.007-9.251-.01-13.877a2.033,2.033,0,0,1,.677-1.631c.641-.588,1.241-1.22,1.852-1.841a1.617,1.617,0,0,1,1.231-.509c1.981.013,3.963.01,5.944,0a1.611,1.611,0,0,1,1.157.451c.748.7,1.47,1.427,2.174,2.171a1.523,1.523,0,0,1,.44,1.106c-.005,1.4.012,2.8.02,4.2,0,.582-.105.707-.676.7q-1.87-.028-3.74,0c-.508.007-.624-.121-.627-.642,0-.785.006-1.57.008-2.355,0-.56-.064-.629-.611-.631q-1.127,0-2.254,0c-.519,0-.625.111-.624.633q0,2.484,0,4.967,0,9.013,0,18.026c0,1.656-.008,3.311-.012,4.967a3.765,3.765,0,0,0,.008.409c.05.464.231.644.7.621.734-.037,1.466-.025,2.2-.005.477.013.59-.119.59-.616,0-.785-.008-1.57-.008-2.355,0-.567.124-.694.686-.7q1.845-.005,3.689,0c.565,0,.662.1.655.655a11.887,11.887,0,0,1-.028,1.43" transform="translate(-205.795 -8.132)" fill="#070807"/>
    <path id="Path_61" data-name="Path 61" d="M201.76,49.966a1.455,1.455,0,0,1-.04-.557q0-18.429,0-36.858c0-.051,0-.1,0-.154,0-.441,0-.445.447-.445q2.049,0,4.1,0c.359,0,.36.009.368.37,0,.12,0,.239,0,.358V45.9c0,.632,0,.632.612.632h6.4c.4,0,.4-.044.4.378,0,1.5,0,3,0,4.474a.292.292,0,0,1-.261.082h-7.428c-.085,0-.17-.013-.255-.02a3.987,3.987,0,0,1,1.32-.753.857.857,0,0,0,.562-.662,1.079,1.079,0,0,0-.059-.7,4.309,4.309,0,0,0-2.644-2.532,1.574,1.574,0,0,0-1.243.026,2.195,2.195,0,0,0-.773.653,14.022,14.022,0,0,0-1.506,2.481" transform="translate(-138.063 -8.18)" fill="#070807"/>
    <path id="Path_62" data-name="Path 62" d="M45.053,19.557c0-1.639.009-3.278-.006-4.916A1.374,1.374,0,0,1,45.5,13.55c.436-.408.852-.838,1.269-1.266a1.3,1.3,0,0,1,1-.418q2.024.019,4.048,0a1.235,1.235,0,0,1,.959.39c.488.5.986.993,1.484,1.485a.78.78,0,0,1,.27.581q0,2.022.021,4.045c0,.2-.078.267-.271.266q-1.512-.008-3.024,0c-.205,0-.26-.08-.258-.272.009-.785.007-1.57.007-2.356,0-.566-.1-.653-.656-.642-.427.008-.854,0-1.28,0-.385,0-.5.1-.509.473-.013.409.009.819.008,1.228q0,3.072-.013,6.145c0,.136-.007.274,0,.409.028.355.112.439.48.442.871.006,1.743.018,2.613,0a1.539,1.539,0,0,1,1.232.5c.423.445.863.874,1.3,1.309a1.124,1.124,0,0,1,.351.823c0,.187.016.375.016.563,0,3.158-.006,6.316.007,9.474a1.7,1.7,0,0,1-.545,1.371c-.429.391-.829.812-1.236,1.226a1.261,1.261,0,0,1-.959.4c-1.349-.01-2.7-.008-4.048,0a1.216,1.216,0,0,1-.885-.325c-.387-.361-.785-.71-1.169-1.073a2.124,2.124,0,0,1-.7-1.694c.049-1.143.063-2.286.049-3.429,0-.2.063-.271.263-.27.991.006,1.982.008,2.972,0,.24,0,.28.108.279.311-.007.8,0,1.6,0,2.407,0,.528,0,.528.547.533l1.382.015c.41,0,.5-.079.5-.514.005-1.041,0-2.083,0-3.124,0-1.451,0-2.9,0-4.353,0-.549-.077-.619-.617-.6a26.278,26.278,0,0,1-2.712-.025,1.389,1.389,0,0,1-.909-.409q-.585-.574-1.169-1.148a1.98,1.98,0,0,1-.548-1.493q0-2.484,0-4.967Z" transform="translate(-30.802 -8.122)" fill="#070807"/>
    <path id="Path_63" data-name="Path 63" d="M87.963,27.581V39.049c0,.1,0,.2,0,.307-.01.382-.01.388-.407.389q-1.383.005-2.766,0c-.361,0-.361-.009-.37-.367,0-.1,0-.2,0-.307V15.983c0-.582,0-.582-.605-.582-.751,0-1.5-.009-2.254,0-.253,0-.316-.086-.313-.326.012-.9,0-1.809.006-2.713,0-.441,0-.444.449-.445q4.15,0,8.3,0c.29,0,.581.008.871,0,.2-.008.271.081.271.272,0,.99-.005,1.979,0,2.969,0,.222-.119.243-.292.242-.768,0-1.537,0-2.305,0-.12,0-.239,0-.359,0-.145-.006-.226.049-.223.2,0,.137,0,.273,0,.41v11.57" transform="translate(-55.61 -8.157)" fill="#070807"/>
    <path id="Path_64" data-name="Path 64" d="M455.724,11.618q0-4.685,0-9.37A2.179,2.179,0,0,1,457.209.135a2.253,2.253,0,0,1,3.021,2.027c0,.068,0,.137,0,.2q0,9.294,0,18.587a2.2,2.2,0,0,1-1.171,2.067,2.229,2.229,0,0,1-3.332-1.931c-.013-3.158,0-6.315,0-9.473" transform="translate(-311.92 0)" fill="#070807"/>
    <path id="Path_65" data-name="Path 65" d="M481.49,35.587c0,1.6.007,3.209,0,4.813a2.205,2.205,0,0,1-1.75,2.274,2.238,2.238,0,0,1-2.7-1.724,3.692,3.692,0,0,1-.062-.661q-.006-4.736,0-9.472a2.517,2.517,0,0,1,.2-1.1,2.252,2.252,0,0,1,4.311.8c.027.648.008,1.3.008,1.946q0,1.561,0,3.123" transform="translate(-326.465 -19.426)" fill="#070807"/>
    <path id="Path_66" data-name="Path 66" d="M498.3,39.028c0-1.433-.01-2.866,0-4.3a2.239,2.239,0,0,1,1.736-2.137,2.262,2.262,0,0,1,2.576,1.289,2.17,2.17,0,0,1,.194.891c0,2.866.009,5.732-.008,8.6a2.25,2.25,0,0,1-4.5-.042c-.008-1.433,0-2.866,0-4.3" transform="translate(-341.06 -22.271)" fill="#070807"/>
    <path id="Path_67" data-name="Path 67" d="M199.508,125.321a14.021,14.021,0,0,1,1.506-2.481,2.195,2.195,0,0,1,.773-.653,1.574,1.574,0,0,1,1.243-.026,4.309,4.309,0,0,1,2.644,2.532,1.079,1.079,0,0,1,.059.7.857.857,0,0,1-.562.662,3.987,3.987,0,0,0-1.32.753,6.6,6.6,0,0,0-1.634,1.67,14.254,14.254,0,0,0-1.173,1.913c-.343.669-.618.778-1.318.545a1.787,1.787,0,0,1-1.255-2.2,17.088,17.088,0,0,1,1.037-3.409" transform="translate(-135.811 -83.534)" fill="#e6001b"/>
    <path id="Path_68" data-name="Path 68" d="M280.583,129.864a23.334,23.334,0,0,1,1.314-2.208c.231-.25.447-.517.7-.747a1.535,1.535,0,0,1,1.7-.347,4.2,4.2,0,0,1,2.542,2.567.959.959,0,0,1-.564,1.29,6.273,6.273,0,0,0-2.4,1.782,12.226,12.226,0,0,0-1.654,2.514c-.354.712-.644.837-1.382.564a1.7,1.7,0,0,1-1.219-2.037,11.575,11.575,0,0,1,.771-2.906c.063-.158.128-.315.192-.473" transform="translate(-191.371 -86.542)" fill="#e6001b"/>
  </g>
</svg>
