<svg xmlns="http://www.w3.org/2000/svg" xmlns:xlink="http://www.w3.org/1999/xlink" width="57.287" height="57.287" viewBox="0 0 57.287 57.287">
  <defs>
    <clipPath id="clip-path">
      <rect id="Rectangle_51" data-name="Rectangle 51" width="57.287" height="57.287" transform="translate(0 0)" fill="none" stroke="#000" stroke-width="1"/>
    </clipPath>
  </defs>
  <g id="Group_422" data-name="Group 422" transform="translate(-0.003 -0.001)">
    <g id="Group_148" data-name="Group 148" transform="translate(0.003 0.001)" clip-path="url(#clip-path)">
      <path id="Path_121" data-name="Path 121" d="M43.654,24.474l4.795,7.192V50.846h7.192V24.474L49.062,9.335a5.983,5.983,0,0,0-2.014-2.69L38.859.5A14.492,14.492,0,0,1,28.07,5.295,14.492,14.492,0,0,1,17.282.5L9.092,6.645a5.983,5.983,0,0,0-2.014,2.69L.5,26.872V50.846H7.692V31.667l4.795-7.192" transform="translate(0.696 0.698)" fill="none" stroke="#000" stroke-linecap="round" stroke-linejoin="round" stroke-width="1"/>
      <path id="Path_122" data-name="Path 122" d="M5.5,6.5V42.462a27.726,27.726,0,0,0,31.167,0V6.5" transform="translate(7.683 9.082)" fill="none" stroke="#000" stroke-linecap="round" stroke-linejoin="round" stroke-width="1"/>
    </g>
  </g>
</svg>
