<svg xmlns="http://www.w3.org/2000/svg" width="55.126" height="52.645" viewBox="0 0 55.126 52.645">
  <g id="Long_Sleeve_Icon" data-name="Long Sleeve Icon" transform="translate(-2.045 0.058)">
    <g id="Group_467" data-name="Group 467" transform="translate(1 1)">
      <path id="Path_4912" data-name="Path 4912" d="M29.064,10.532C37.979,10.532,39.655,1,39.655,1l8.473,3.177S44.951,10,44.951,21.123V51.838H13.177V21.123C13.177,10,10,4.177,10,4.177L18.473,1S20.15,10.532,29.064,10.532Z" transform="translate(-0.468 -1)" fill="none" stroke="#000" stroke-linecap="round" stroke-linejoin="round" stroke-width="1.5"/>
      <path id="Path_4913" data-name="Path 4913" d="M46.177,4l7.76,21.086L51.847,49.992H45.581l1.1-19.586L43,20.946" transform="translate(1.483 -0.823)" fill="none" stroke="#000" stroke-linecap="round" stroke-linejoin="round" stroke-width="1.5"/>
      <path id="Path_4915" data-name="Path 4915" d="M10.532,4,2.795,24.822,5.659,49.868H11.17L10.016,29.453l3.694-8.507" transform="translate(-1 -0.823)" fill="none" stroke="#000" stroke-linecap="round" stroke-linejoin="round" stroke-width="1.5"/>
      <path id="Path_4916" data-name="Path 4916" d="M18,1s3.707,3.177,10.591,3.177S39.182,1,39.182,1" transform="translate(0.005 -1)" fill="none" stroke="#000" stroke-linecap="round" stroke-linejoin="round" stroke-width="1.5"/>
    </g>
  </g>
</svg>
