<svg xmlns="http://www.w3.org/2000/svg" width="28.39" height="56.844" viewBox="0 0 28.39 56.844">
  <g id="Pants_Icon" data-name="Pants Icon" transform="translate(0.263 0.275)">
    <g id="Group_423" data-name="Group 423">
      <path id="Path_4782" data-name="Path 4782" d="M27.287,2.5q.021,1.719.042,3.437A53.611,53.611,0,0,1,29.1,19.019Q29.728,32.7,29.046,46.4c-.141,2.835-1.255,10.2-1.3,11.222a51.566,51.566,0,0,1-7.865.039c-.239-1.134-1.543-7.848-1.732-10.427Q17.14,33.371,16.127,19.507c-1.146,9.315-1.883,18.723-2.353,28.145-.119,2.378-1.039,8.869-1.025,9.931-2.033.058-6.018.045-8,.032-.014-1.136-1.4-7.289-1.582-9.63-1.082-13.739-1-27.641,1.425-41.208a26.76,26.76,0,0,0,.318-4.029C12.259,2.722,19.609,2.7,27.287,2.5Z" transform="translate(-2.025 -2.025)" fill="none" stroke="#000" stroke-linecap="round" stroke-linejoin="round" stroke-width="1.5"/>
      <path id="Path_4783" data-name="Path 4783" d="M13.826,20.942a67.671,67.671,0,0,0,8.7.691h0q2.6.046,5.2-.114a67.647,67.647,0,0,0,8.768-1.1" transform="translate(-11.201 -16.546)" fill="none" stroke="#000" stroke-linecap="round" stroke-linejoin="round" stroke-width="1.5"/>
    </g>
  </g>
</svg>
