<svg id="Shorts_Icon" data-name="Shorts Icon" xmlns="http://www.w3.org/2000/svg" xmlns:xlink="http://www.w3.org/1999/xlink" width="42.16" height="44.845" viewBox="0 0 42.16 44.845">
  <defs>
    <clipPath id="clip-path">
      <rect id="Rectangle_200" data-name="Rectangle 200" width="42.16" height="44.845" fill="none" stroke="#000" stroke-width="1.5"/>
    </clipPath>
  </defs>
  <g id="Group_406" data-name="Group 406" clip-path="url(#clip-path)">
    <path id="Path_4739" data-name="Path 4739" d="M39.625,2.5q.032,2.3.064,4.609c1.271,5.8,1.262,9.2,1.663,15.172.41,6.115,1.973,12.8,1.866,19.426a31.369,31.369,0,0,0-.378,4.137c-3.03.3-14.6.29-17.513.052A13.051,13.051,0,0,1,25,41.741c-.934-4.35.383-6.815-2.278-16.437-2.34,8.313-1.964,13.012-2.911,16.228a18.481,18.481,0,0,0-.265,4.256c-3.079.078-13.853.06-16.858.043-.021-1.523-.106-2.722-.19-3.921.586-4.673.948-8.3,1.048-11.452.2-6.24.435-8.7,1.705-22.223a31.866,31.866,0,0,0,.482-5.4C16.867,2.8,28,2.763,39.625,2.5Z" transform="translate(-1.781 -1.864)" fill="none" stroke="#000" stroke-linecap="round" stroke-linejoin="round" stroke-width="1.5"/>
    <path id="Path_4740" data-name="Path 4740" d="M12.393,21.119a115.477,115.477,0,0,0,13.179.927h0q3.945.061,7.882-.153a115.1,115.1,0,0,0,13.278-1.47" transform="translate(-8.83 -15.224)" fill="none" stroke="#000" stroke-linecap="round" stroke-linejoin="round" stroke-width="1.5"/>
    <path id="Path_4744" data-name="Path 4744" d="M98.76,156.994" transform="translate(-57.509 -117.029)" fill="none" stroke="#000" stroke-linecap="round" stroke-linejoin="round" stroke-width="1.5"/>
  </g>
</svg>
