<svg xmlns="http://www.w3.org/2000/svg" width="61.44" height="52.56" viewBox="0 0 61.44 52.56">
  <g id="Tye-Dye_Icon" data-name="Tye-Dye Icon" transform="translate(-774.025 -2813.193)">
    <g id="Group_529" data-name="Group 529" transform="translate(773.665 2812.628)">
      <path id="Path_100" data-name="Path 100" d="M21.5,1.5,34.82,14.82l-6.66,11.1L21.5,23.7" transform="translate(26.23 2.035)" fill="none" stroke="#000" stroke-linecap="round" stroke-linejoin="round" stroke-width="1.5"/>
      <path id="Path_101" data-name="Path 101" d="M13.82,1.5.5,14.82l6.66,11.1,6.66-2.22" transform="translate(0.61 2.035)" fill="none" stroke="#000" stroke-linecap="round" stroke-linejoin="round" stroke-width="1.5"/>
      <path id="Path_102" data-name="Path 102" d="M33.14.5A13.461,13.461,0,0,1,13.16.5L6.5,2.72V51.56H39.8V2.72Z" transform="translate(7.93 0.815)" fill="none" stroke="#000" stroke-linecap="round" stroke-linejoin="round" stroke-width="1.5"/>
    </g>
    <g id="Group_545" data-name="Group 545" transform="translate(792.309 2825.026)">
      <g id="Group_443" data-name="Group 443" transform="translate(0 0)">
        <path id="Path_4859" data-name="Path 4859" d="M20.345,15.371c-2.761-.586-4.4,4.836.908,4.836s5.2-4.4,5.2-6.044-3.343-8.975-12.934-3.7" transform="translate(-7.544 -4.791)" fill="none" stroke="#000" stroke-linecap="round" stroke-linejoin="round" stroke-width="1.5"/>
        <path id="Path_4860" data-name="Path 4860" d="M22.019,21.716c2.689-.964,2.362-5.727-2.943-5.727-4.105,0-4.9,4.066-4.9,5.715s3.052,9.206,12.644,3.932" transform="translate(-7.91 -8.925)" fill="none" stroke="#000" stroke-linecap="round" stroke-linejoin="round" stroke-width="1.5"/>
        <path id="Path_4861" data-name="Path 4861" d="M8.9,20.3a7.894,7.894,0,0,0,.4,8.682" transform="translate(-4.342 -11.332)" fill="none" stroke="#000" stroke-linecap="round" stroke-linejoin="round" stroke-width="1.5"/>
        <path id="Path_4862" data-name="Path 4862" d="M45.079,15.411s2.942-5.8-2.289-9.514" transform="translate(-23.885 -3.292)" fill="none" stroke="#000" stroke-linecap="round" stroke-linejoin="round" stroke-width="1.5"/>
        <path id="Path_4863" data-name="Path 4863" d="M23.244,2.132S17.141-1.092,12.2,3.34" transform="translate(-6.809 -0.558)" fill="none" stroke="#000" stroke-linecap="round" stroke-linejoin="round" stroke-width="1.5"/>
        <path id="Path_4864" data-name="Path 4864" d="M3.259,12.341s-4.832,5.165-.363,12.2" transform="translate(-0.558 -6.889)" fill="none" stroke="#000" stroke-linecap="round" stroke-linejoin="round" stroke-width="1.5"/>
        <path id="Path_4865" data-name="Path 4865" d="M15.653,46.337s4.25,4.286,11.989.494" transform="translate(-8.737 -25.865)" fill="none" stroke="#000" stroke-linecap="round" stroke-linejoin="round" stroke-width="1.5"/>
        <path id="Path_4866" data-name="Path 4866" d="M50.225,18.643s1.308,7.18-3.488,10.99" transform="translate(-26.088 -10.407)" fill="none" stroke="#000" stroke-linecap="round" stroke-linejoin="round" stroke-width="1.5"/>
      </g>
    </g>
  </g>
</svg>
