<svg xmlns="http://www.w3.org/2000/svg" width="58.692" height="52.645" viewBox="0 0 58.692 52.645">
  <g id="V-Neck_Icon" data-name="V-Neck Icon" transform="translate(-0.25 0.058)">
    <g id="Group_467" data-name="Group 467" transform="translate(1 1)">
      <path id="Path_4912" data-name="Path 4912" d="M29.064,10.532,39.655,1l8.473,3.177S44.951,10,44.951,21.123V51.838H13.177V21.123C13.177,10,10,4.177,10,4.177L18.473,1Z" transform="translate(-0.468 -1)" fill="none" stroke="#000" stroke-linecap="round" stroke-linejoin="round" stroke-width="1.5"/>
      <path id="Path_4913" data-name="Path 4913" d="M46.177,4l9.532,10.591-6.355,9.532L43,20.946" transform="translate(1.483 -0.823)" fill="none" stroke="#000" stroke-linecap="round" stroke-linejoin="round" stroke-width="1.5"/>
      <path id="Path_4914" data-name="Path 4914" d="M10.532,4,1,14.591l6.355,9.532,6.355-3.177" transform="translate(-1 -0.823)" fill="none" stroke="#000" stroke-linecap="round" stroke-linejoin="round" stroke-width="1.5"/>
      <path id="Path_4915" data-name="Path 4915" d="M10.532,4,1,14.591l6.355,9.532,6.355-3.177" transform="translate(-1 -0.823)" fill="none" stroke="#000" stroke-linecap="round" stroke-linejoin="round" stroke-width="1.5"/>
      <path id="Path_4916" data-name="Path 4916" d="M18,1s3.707,3.177,10.591,3.177S39.182,1,39.182,1" transform="translate(0.005 -1)" fill="none" stroke="#000" stroke-linecap="round" stroke-linejoin="round" stroke-width="1.5"/>
    </g>
  </g>
</svg>
